<?xml version="1.0" standalone="no"?>
<!DOCTYPE svg PUBLIC "-//W3C//DTD SVG 20010904//EN"
 "http://www.w3.org/TR/2001/REC-SVG-20010904/DTD/svg10.dtd">
<svg version="1.0" xmlns="http://www.w3.org/2000/svg"
 width="1280.000000pt" height="1280.000000pt" viewBox="0 0 1280.000000 1280.000000"
 preserveAspectRatio="xMidYMid meet">
<g transform="translate(0.000000,1280.000000) scale(0.100000,-0.100000)"
fill="#000000" stroke="none">
<path d="M5295 11099 c-236 -31 -436 -130 -591 -291 -181 -190 -273 -385 -379
-808 -60 -237 -134 -460 -192 -578 -38 -76 -60 -105 -127 -170 -97 -92 -210
-175 -366 -267 -260 -153 -379 -242 -513 -384 -173 -185 -324 -429 -443 -718
-20 -48 -38 -90 -40 -92 -1 -2 -17 7 -33 18 -48 35 -190 98 -261 117 -83 22
-318 21 -429 -2 -337 -70 -611 -321 -840 -772 -258 -510 -401 -1093 -401
-1643 0 -363 49 -671 159 -1007 81 -248 172 -402 319 -544 135 -130 280 -215
472 -278 172 -56 448 -97 598 -87 45 2 82 2 82 -2 0 -4 31 -54 68 -112 215
-329 484 -567 827 -734 572 -279 1314 -333 2245 -164 156 28 467 96 482 105 4
3 87 -20 185 -50 715 -220 1402 -372 2123 -470 682 -93 847 -88 1096 34 224
109 422 304 524 515 82 171 115 341 107 554 -3 80 -8 156 -12 169 -7 22 -6 22
86 22 131 0 456 18 564 31 252 31 471 142 651 330 137 144 222 294 271 477 23
84 26 118 27 257 0 169 -7 225 -51 360 -31 98 -77 189 -137 275 l-45 65 77 12
c95 16 154 35 259 84 412 189 716 602 748 1014 17 220 -60 511 -192 724 -64
103 -215 252 -321 315 -177 105 -436 183 -703 211 l-65 7 37 71 c155 296 156
667 4 982 -58 119 -114 196 -220 300 -172 170 -373 272 -624 316 -125 22 -409
30 -566 15 -303 -27 -1448 -276 -3320 -720 -148 -36 -271 -63 -273 -61 -2 1
11 26 28 55 135 229 269 573 335 862 67 287 48 590 -56 902 -122 367 -278 568
-531 685 -134 62 -189 73 -393 77 -99 1 -211 -2 -250 -7z m367 -642 c100 -49
166 -142 221 -312 75 -230 80 -423 16 -650 -67 -236 -143 -416 -291 -685 -139
-254 -208 -421 -248 -606 -20 -93 -21 -121 -18 -469 3 -350 2 -375 -19 -465
-42 -183 -117 -400 -186 -535 -141 -279 -367 -494 -712 -680 -185 -99 -239
-170 -239 -315 -1 -124 60 -222 172 -277 47 -23 70 -28 134 -28 75 0 80 2 210
67 412 208 739 501 932 836 86 148 227 518 281 737 47 190 58 308 51 546 l-7
215 93 22 c51 12 332 78 623 147 1494 355 2692 620 3030 670 303 45 539 23
705 -66 119 -63 217 -204 242 -346 32 -191 -71 -403 -234 -482 -56 -26 -282
-104 -528 -180 -786 -243 -1471 -394 -2632 -580 -183 -30 -324 -57 -351 -69
-150 -67 -215 -261 -138 -417 52 -104 146 -164 259 -165 63 0 277 31 667 96
751 125 1382 258 1895 399 302 83 969 153 1345 142 339 -11 512 -54 656 -164
148 -113 222 -332 174 -518 -55 -210 -284 -416 -512 -459 -343 -65 -1468 -141
-3761 -256 -441 -22 -448 -23 -531 -103 -63 -61 -91 -126 -91 -213 0 -102 22
-158 90 -225 102 -102 -41 -96 1562 -70 766 13 1521 26 1678 30 157 4 312 3
345 -1 92 -12 191 -66 263 -142 115 -124 157 -277 116 -431 -41 -160 -185
-298 -350 -339 -33 -8 -151 -21 -264 -28 -275 -17 -1488 -18 -1815 0 -479 25
-988 64 -1410 107 -325 34 -366 33 -443 -5 -103 -52 -160 -138 -170 -256 -11
-140 83 -275 219 -314 40 -12 657 -72 1014 -100 507 -39 1150 -70 1448 -70
l128 0 32 -67 c54 -115 49 -265 -11 -393 -37 -78 -150 -188 -232 -228 -107
-52 -159 -55 -412 -26 -859 97 -1666 271 -2485 535 -97 31 -171 49 -202 49
-27 0 -131 -20 -233 -45 -431 -104 -808 -155 -1153 -155 -441 0 -773 71 -1085
231 -407 210 -692 561 -866 1063 -42 123 -73 173 -131 216 -55 41 -114 60
-184 60 -212 0 -357 -200 -294 -406 8 -27 15 -52 15 -55 0 -9 -114 16 -183 40
-161 56 -294 162 -374 298 -50 86 -115 310 -154 538 -27 152 -37 517 -19 663
51 410 150 755 311 1075 72 144 139 243 216 319 98 96 223 158 322 160 46 0
143 -48 244 -123 l69 -50 -9 -72 c-12 -106 -8 -169 16 -222 33 -74 76 -121
143 -154 53 -27 72 -31 143 -31 101 0 163 28 230 102 51 57 67 101 90 258 46
298 171 661 311 900 120 205 288 366 509 490 101 56 336 213 415 277 112 91
249 238 305 327 102 164 191 409 295 806 83 320 116 395 223 507 109 115 206
155 362 150 86 -2 108 -6 157 -30z"/>
</g>
</svg>