<?xml version="1.0" standalone="no"?>
<!DOCTYPE svg PUBLIC "-//W3C//DTD SVG 20010904//EN"
 "http://www.w3.org/TR/2001/REC-SVG-20010904/DTD/svg10.dtd">
<svg version="1.0" xmlns="http://www.w3.org/2000/svg"
 width="1280.000000pt" height="1280.000000pt" viewBox="0 0 1280.000000 1280.000000"
 preserveAspectRatio="xMidYMid meet">
<g transform="translate(0.000000,1280.000000) scale(0.100000,-0.100000)"
fill="#000000" stroke="none">
<path d="M5932 11144 c-380 -55 -815 -260 -1257 -593 -250 -188 -374 -296
-501 -439 -217 -243 -416 -560 -578 -921 l-62 -136 -79 33 c-119 51 -236 72
-395 72 -341 0 -580 -85 -834 -299 -433 -364 -830 -1253 -960 -2150 -78 -537
-55 -1021 74 -1546 109 -444 237 -716 438 -926 113 -119 230 -205 382 -283
192 -97 424 -164 680 -196 47 -5 86 -14 88 -18 1 -4 38 -69 83 -143 163 -273
346 -512 489 -637 277 -242 624 -386 1042 -431 211 -23 617 -9 851 30 l68 11
167 -164 c449 -440 878 -648 1368 -665 335 -12 673 48 921 162 239 110 498
367 602 596 63 139 101 304 101 440 l0 65 78 13 c346 58 708 219 984 439 434
346 637 757 614 1242 -4 74 -13 169 -20 210 -7 41 -13 75 -12 76 0 0 42 27 91
59 121 78 274 234 339 343 115 194 176 451 176 744 0 237 -73 468 -221 698
-29 46 -48 85 -43 87 18 6 205 133 289 196 86 65 341 316 444 436 196 230 315
444 379 680 24 89 26 112 26 316 1 201 -1 228 -23 309 -80 306 -252 563 -571
858 -428 396 -860 600 -1415 669 -141 17 -471 15 -635 -5 -249 -30 -517 -90
-768 -171 l-110 -35 -63 66 c-35 37 -116 114 -179 172 -489 449 -984 687
-1539 742 -140 14 -396 11 -509 -6z m573 -784 c261 -55 517 -175 750 -350 315
-237 633 -608 790 -918 100 -199 128 -309 128 -507 -1 -110 -5 -157 -22 -218
-57 -215 -151 -309 -323 -323 -138 -11 -278 35 -412 137 -94 71 -637 603 -659
646 -46 87 -150 160 -262 183 -161 33 -341 -52 -409 -193 -84 -173 -76 -341
34 -680 66 -205 69 -235 44 -367 -42 -222 -164 -459 -346 -670 -149 -172 -298
-271 -474 -315 -111 -28 -163 -56 -225 -122 -82 -88 -118 -201 -99 -316 21
-131 94 -228 218 -289 62 -31 73 -33 167 -32 215 2 442 88 665 252 41 31 129
110 195 176 l120 121 1 -165 c1 -186 22 -324 75 -482 17 -50 27 -94 22 -98 -4
-4 -44 -31 -88 -60 -301 -200 -445 -493 -445 -906 l0 -131 -67 -12 c-343 -63
-672 -406 -773 -803 -37 -150 -53 -347 -39 -495 5 -58 12 -109 14 -114 9 -14
-201 -21 -329 -10 -459 40 -764 204 -981 531 -229 346 -299 624 -209 830 25
57 29 77 28 160 0 129 -25 193 -108 276 -68 68 -141 102 -237 111 -109 10
-233 -36 -309 -117 -84 -88 -173 -287 -200 -447 -6 -40 -14 -73 -16 -73 -25 0
-180 72 -240 111 -170 111 -269 246 -338 459 -96 298 -144 581 -153 900 -7
249 5 406 47 656 99 576 333 1168 571 1441 142 163 351 270 489 249 25 -3 72
-22 105 -40 49 -27 60 -38 59 -57 -1 -13 -34 -149 -73 -302 -83 -329 -89 -370
-67 -457 32 -123 103 -211 214 -263 60 -28 77 -32 158 -32 84 0 95 2 166 38
91 45 157 113 187 192 11 29 34 116 52 192 73 320 195 720 298 977 239 597
510 981 892 1268 337 253 642 409 912 468 122 26 353 22 502 -10z m3110 -760
c426 -48 804 -233 1096 -538 215 -224 302 -435 255 -622 -22 -90 -94 -233
-167 -330 -33 -45 -118 -141 -187 -213 -254 -260 -497 -406 -828 -496 -348
-94 -693 -122 -989 -80 -104 15 -364 70 -398 84 l-30 12 59 38 c89 58 250 227
313 328 70 114 124 245 157 385 15 61 31 112 35 112 5 0 85 -34 179 -75 100
-44 196 -79 234 -85 165 -29 330 60 404 218 24 50 27 69 27 162 0 93 -3 111
-26 160 -58 121 -106 154 -402 279 -212 89 -348 137 -418 146 l-54 7 -28 88
c-16 48 -55 142 -87 209 l-59 121 37 9 c117 31 338 72 462 84 79 8 331 6 415
-3z m-1781 -2789 c174 -96 365 -161 605 -205 314 -59 334 -61 661 -61 317 1
429 10 644 55 l91 19 38 -42 c52 -59 142 -193 171 -258 62 -134 71 -278 27
-420 -40 -126 -79 -171 -263 -294 -163 -111 -197 -130 -318 -180 -206 -86
-345 -116 -583 -122 -431 -13 -825 87 -1194 302 -129 76 -191 122 -292 219
-94 91 -147 164 -196 269 -49 103 -66 177 -72 304 -7 150 15 227 88 307 41 45
64 60 129 86 97 37 208 58 314 59 73 1 83 -2 150 -38z m-802 -1671 c218 -176
576 -364 883 -463 494 -160 1053 -191 1504 -82 57 14 106 23 109 20 13 -12
-31 -167 -68 -242 -94 -191 -280 -360 -525 -478 -306 -147 -646 -180 -1044
-104 -228 44 -514 163 -715 296 -290 193 -456 467 -458 758 -1 117 22 193 79
256 35 39 122 89 155 89 10 0 46 -23 80 -50z m-857 -1181 c38 -16 61 -35 95
-81 56 -74 223 -240 315 -313 304 -241 725 -438 1114 -520 69 -14 131 -31 139
-38 22 -17 10 -112 -23 -180 -44 -94 -114 -161 -219 -212 -242 -117 -568 -138
-826 -54 -279 92 -594 335 -795 614 -138 192 -174 367 -114 560 21 70 79 162
122 196 27 21 96 47 127 48 8 1 37 -8 65 -20z"/>
</g>
</svg>