<?xml version="1.0" standalone="no"?>
<!DOCTYPE svg PUBLIC "-//W3C//DTD SVG 20010904//EN"
 "http://www.w3.org/TR/2001/REC-SVG-20010904/DTD/svg10.dtd">
<svg version="1.0" xmlns="http://www.w3.org/2000/svg"
 width="1280.000000pt" height="1280.000000pt" viewBox="0 0 1280.000000 1280.000000"
 preserveAspectRatio="xMidYMid meet">
<g transform="translate(0.000000,1280.000000) scale(0.100000,-0.100000)"
fill="#000000" stroke="none">
<path d="M4720 10619 c-367 -39 -804 -252 -1255 -612 -327 -261 -557 -567
-766 -1017 -53 -115 -71 -145 -86 -143 -10 1 -58 17 -108 35 l-90 33 -205 0
c-194 -1 -210 -2 -293 -28 -165 -51 -285 -118 -415 -230 -384 -334 -706 -1080
-818 -1897 -21 -159 -30 -546 -15 -707 43 -456 181 -923 348 -1176 61 -92 208
-239 300 -300 245 -162 565 -254 907 -260 l110 -2 74 -98 c213 -282 529 -519
817 -616 258 -86 566 -103 831 -46 16 4 28 -8 59 -63 97 -165 314 -414 485
-557 230 -191 474 -309 729 -351 142 -23 431 -15 576 16 215 46 411 129 576
246 111 78 265 228 330 321 92 134 149 303 149 446 l0 63 133 13 c72 6 188 23
255 37 537 108 1036 442 1221 817 67 137 83 208 88 401 6 176 -3 264 -37 375
-10 33 -15 59 -12 57 12 -7 655 -114 877 -145 765 -110 1296 -156 1690 -148
252 5 340 17 493 68 222 73 439 236 584 439 69 98 154 254 187 346 87 238 84
528 -9 806 -40 120 -124 300 -175 378 -92 139 -271 282 -468 375 -274 129
-708 229 -1135 261 -51 4 -89 10 -85 14 4 4 71 28 148 55 457 156 803 363 980
587 66 83 178 295 229 433 79 214 105 437 71 602 -34 161 -153 362 -305 513
-164 165 -339 260 -605 330 -205 54 -305 65 -585 64 -236 0 -265 -2 -395 -27
-696 -137 -2118 -625 -2945 -1012 -131 -61 -145 -66 -155 -50 -296 496 -790
961 -1243 1172 -322 149 -707 216 -1042 182z m425 -674 c204 -42 434 -145 613
-272 355 -254 705 -698 794 -1008 32 -115 33 -338 1 -440 -33 -103 -79 -174
-137 -210 -47 -28 -55 -30 -155 -30 -208 0 -274 40 -618 377 -145 141 -259
261 -275 289 -100 173 -350 206 -505 66 -49 -45 -80 -106 -99 -199 -26 -124
-6 -262 72 -486 33 -96 44 -142 44 -188 0 -76 -37 -226 -78 -317 -96 -210
-277 -436 -435 -540 -55 -37 -128 -66 -248 -101 -184 -53 -281 -269 -201 -448
26 -59 93 -127 157 -159 43 -21 64 -24 150 -24 353 2 719 266 1035 745 107
164 190 348 249 557 6 22 8 21 71 -23 396 -277 936 -283 1275 -13 139 110 261
294 319 477 43 136 59 259 59 449 l0 171 161 77 c649 311 1833 738 2551 920
345 88 487 105 695 85 349 -33 543 -118 657 -288 37 -56 38 -59 38 -152 0
-103 -16 -165 -81 -308 -76 -166 -280 -319 -604 -452 -245 -100 -534 -184
-1000 -290 -878 -199 -2331 -600 -2449 -675 -129 -81 -184 -267 -119 -406 44
-97 136 -170 238 -189 45 -8 94 -5 280 20 497 66 973 114 1450 147 323 22
1223 25 1455 5 723 -63 1128 -211 1253 -457 68 -136 97 -325 68 -448 -46 -195
-204 -377 -378 -436 -100 -34 -284 -45 -546 -31 -856 42 -2268 263 -3234 505
-194 49 -339 70 -407 61 -106 -14 -203 -87 -250 -186 -22 -46 -26 -69 -26
-140 0 -73 4 -93 28 -142 53 -107 134 -160 284 -183 154 -23 253 -63 391 -158
197 -136 336 -363 319 -522 -29 -268 -374 -526 -830 -617 -146 -29 -460 -32
-632 -5 -468 74 -895 294 -1043 539 -66 111 -99 262 -73 340 35 106 219 179
455 181 97 1 107 -2 248 -51 231 -81 508 -201 548 -237 40 -36 115 -59 195
-60 68 0 89 4 136 28 66 32 132 99 162 165 17 36 22 66 22 132 0 73 -4 93 -28
142 -53 109 -172 187 -487 321 -203 86 -406 157 -558 194 -100 24 -118 25
-267 20 -324 -12 -522 -67 -727 -203 -224 -149 -331 -338 -363 -641 l-7 -61
-61 -7 c-187 -22 -366 -121 -510 -283 -133 -149 -219 -350 -246 -571 -7 -52
-14 -97 -16 -101 -2 -4 -48 -12 -102 -19 -158 -20 -349 15 -500 93 -190 97
-388 300 -490 501 -63 123 -84 199 -107 374 -17 124 -37 173 -99 235 -67 66
-126 90 -227 90 -105 0 -166 -24 -233 -92 -76 -78 -92 -125 -91 -271 l1 -123
-38 6 c-72 11 -208 63 -281 106 -89 53 -190 154 -241 240 -68 118 -146 393
-183 655 -27 182 -25 504 5 705 57 395 158 735 311 1045 156 315 321 475 532
515 57 10 69 9 118 -9 30 -12 66 -30 80 -40 l24 -19 -27 -104 c-74 -278 -109
-443 -105 -503 7 -114 81 -225 184 -275 41 -21 64 -25 139 -25 102 0 149 17
224 81 57 50 85 109 120 261 208 902 528 1538 939 1868 292 236 600 401 852
456 103 23 290 20 415 -6z m-238 -5457 c43 -14 75 -32 88 -48 42 -55 154 -165
225 -223 241 -195 591 -363 950 -457 77 -20 88 -26 110 -58 28 -42 27 -58 -5
-129 -73 -163 -312 -307 -570 -343 -296 -42 -557 67 -820 341 -197 206 -295
401 -295 590 0 149 61 278 152 323 63 32 79 32 165 4z"/>
</g>
</svg>